# xmcd
#
# Track frame offsets: 
#        150
#        11760
#        22815
#        32322
#        42685
#        55242
#        66340
#        77107
#        88077
#        99662
#        112392
#        122865
#        133860
#        144370
#        154672
#        165932
#        176560
#        190885
#        203872
#        215075
#        226167
#        236362
#        247745
#        259180
#
# Disc length: 3637 seconds
#
# Revision: 2
# Processed by: cddbd v1.4PL0 Copyright (c) Steve Scherf et al.
# Submitted via: ExactAudioCopy v0.95a4
#
DISCID=4c0e3318
DTITLE=Patsy Cline - Walkin' After Midnight - The Very Best of Patsy C
DTITLE=line
DYEAR=1900
DGENRE=
TTITLE0=Walkin' After Midnight
TTITLE1=Stop The World (And Let Me Off)
TTITLE2=I'm Moving Along
TTITLE3=How Can I Face Tomorrow
TTITLE4=Fingerprints
TTITLE5=A Stranger In My Arms
TTITLE6=I Cried All The Way To The Altar
TTITLE7=There He Goes
TTITLE8=Lonely Street
TTITLE9=Yes, I Understand
TTITLE10=He Will Do For You What He Did For Me
TTITLE11=I Can't Forget
TTITLE12=Lovesick Blues
TTITLE13=Walking Dream
TTITLE14=Cry Not For Me
TTITLE15=Honky Tonk Merry Go Round
TTITLE16=Then You'll Know
TTITLE17=Life's Railway To Heaven
TTITLE18=Hungry For Love
TTITLE19=Hidin' Out
TTITLE20=Three Cigarettes In An Ashtray
TTITLE21=That Wonderful Someone
TTITLE22=Crazy Dreams
TTITLE23=A Church, A Courtroom, And Then Goodbye
EXTD=
EXTT0=
EXTT1=
EXTT2=
EXTT3=
EXTT4=
EXTT5=
EXTT6=
EXTT7=
EXTT8=
EXTT9=
EXTT10=
EXTT11=
EXTT12=
EXTT13=
EXTT14=
EXTT15=
EXTT16=
EXTT17=
EXTT18=
EXTT19=
EXTT20=
EXTT21=
EXTT22=
EXTT23=
PLAYORDER=
